<?xml version="1.0" encoding="UTF-8"?><svg id="Layer_2" xmlns="http://www.w3.org/2000/svg" viewBox="0 0 251.13 62.36"><defs><style>.cls-1{fill:#434242;}</style></defs><g id="Layer_2-2"><g><path class="cls-1" d="M44.26,12.22h-9.88V62.36l-12.69-12.58V12.22H11.75L0,1.04H44.26V12.22Z"/><path class="cls-1" d="M206.87,1.04h44.26l-11.75,11.17h-9.94V49.78l-12.69,12.58V12.22h-9.88V1.04Z"/><path class="cls-1" d="M98.2,25.47c0,7.18-2.53,13.2-7.59,18.05-5.06,4.86-11.33,7.29-18.8,7.29s-13.77-2.43-18.83-7.29c-5.06-4.86-7.59-10.88-7.59-18.05s2.54-13.19,7.62-18.1c5.08-4.91,11.35-7.37,18.8-7.37s13.74,2.45,18.8,7.36c5.06,4.9,7.59,10.94,7.59,18.12Zm-13.2,0c0-3.74-1.25-6.88-3.74-9.4-2.49-2.53-5.65-3.79-9.46-3.79s-7.07,1.25-9.55,3.74c-2.47,2.5-3.71,5.65-3.71,9.45s1.25,6.86,3.74,9.35c2.49,2.48,5.66,3.72,9.51,3.72s6.99-1.25,9.47-3.74c2.48-2.49,3.72-5.6,3.72-9.33Z"/><path class="cls-1" d="M141.32,17.65c0,5.34-1.79,9.37-5.37,12.08-3.58,2.72-8.86,4.08-15.85,4.08h-2.05v15.97h-12.69V1.04h14.17c7.51,0,13.02,1.36,16.52,4.08,3.51,2.73,5.26,6.9,5.26,12.52Zm-13.19-.19c0-2.13-.65-3.68-1.94-4.64-1.29-.97-3.43-1.45-6.39-1.45h-1.74v12.09h1.61c3.07,0,5.25-.46,6.53-1.39,1.29-.93,1.93-2.46,1.93-4.61Z"/><path class="cls-1" d="M182.8,47.79c-1.56,.99-3.43,1.74-5.64,2.26-2.2,.51-4.63,.77-7.31,.77-7.16,0-13.09-2.4-17.8-7.2-4.71-4.8-7.07-10.85-7.07-18.15s2.36-13.37,7.09-18.21c4.72-4.84,10.65-7.26,17.79-7.26,2.74,0,5.19,.26,7.35,.76,2.17,.5,4.03,1.26,5.59,2.27v14.43c-1.47-1.64-3.22-2.91-5.25-3.82-2.03-.9-4.14-1.36-6.33-1.36-3.9,0-7.05,1.24-9.45,3.71-2.41,2.47-3.62,5.72-3.62,9.74,0,3.75,1.22,6.82,3.66,9.22,2.44,2.39,5.58,3.6,9.41,3.6,2.12,0,4.22-.46,6.3-1.37,2.07-.91,3.83-2.18,5.29-3.8v14.43Z"/><path class="cls-1" d="M202.18,49.78h-12.66V1.04h12.66V49.78Z"/></g></g></svg>